<svg id="Layer_1" data-name="Layer 1" xmlns="http://www.w3.org/2000/svg" viewBox="0 0 455.11 129.55"><defs><style>.cls-1{fill:#231f20}.cls-2{fill:#39c1fd}.cls-3{fill:#f0375a}</style></defs><title>RegalixNew_logo</title><path class="cls-1" d="M184.49 295.67h20.7v12.7a25.79 25.79 0 0 1 8.12-9.26 19.66 19.66 0 0 1 11.21-3.22h1.77a11.18 11.18 0 0 1 2.23.26v22.72a17.62 17.62 0 0 0-8.92-2.36q-7.2 0-10.81 4.93t-3.6 14.38v28.9h-20.7zM255.15 334.31q0 14.76 13.9 14.76a12.42 12.42 0 0 0 11.24-6.07h22.11q-6.7 22.2-33.47 22.2a44 44 0 0 1-15-2.46 33.54 33.54 0 0 1-11.68-7 31.2 31.2 0 0 1-7.52-10.85 36.13 36.13 0 0 1-2.73-14.11 39.91 39.91 0 0 1 2.53-14.57 30.62 30.62 0 0 1 7.2-11 31.92 31.92 0 0 1 11.3-7 42.81 42.81 0 0 1 15-2.46 41.89 41.89 0 0 1 14.78 2.46 30 30 0 0 1 11.12 7.13 31 31 0 0 1 6.95 11.42 45.2 45.2 0 0 1 2.4 15.2v2.4zm26.78-13.25a13.74 13.74 0 0 0-4.67-7.69 14.51 14.51 0 0 0-17.24-.13 12.55 12.55 0 0 0-4.23 7.82zM382.84 295.67v63.56a72.72 72.72 0 0 1-.61 9.95 45.07 45.07 0 0 1-1.71 7.75 24.65 24.65 0 0 1-4.59 7.94 31.19 31.19 0 0 1-7.52 6.39 38.69 38.69 0 0 1-10 4.26 47.72 47.72 0 0 1-25.51-.39 35.83 35.83 0 0 1-10.7-5.36 30.46 30.46 0 0 1-7.52-8 27.38 27.38 0 0 1-3.92-10h25q2.32 6.59 10.52 6.59 7 0 10.7-4.13t3.73-11.5v-6.33a37.51 37.51 0 0 1-4.71 4.07 26.25 26.25 0 0 1-4.59 2.65 21 21 0 0 1-4.89 1.49 32.54 32.54 0 0 1-5.63.45 30.59 30.59 0 0 1-12.36-2.45 29 29 0 0 1-9.73-6.85 30.83 30.83 0 0 1-6.36-10.53 39.06 39.06 0 0 1-2.26-13.63 40 40 0 0 1 2.45-14.15 36.78 36.78 0 0 1 6.67-11.37 30.79 30.79 0 0 1 10-7.62 29 29 0 0 1 12.7-2.79 23.78 23.78 0 0 1 18.72 8.78v-8.78zm-49.67 34.62a16.14 16.14 0 0 0 1.1 6 15.52 15.52 0 0 0 3 4.85 13.41 13.41 0 0 0 4.53 3.23 13.9 13.9 0 0 0 5.69 1.16 13.62 13.62 0 0 0 5.57-1.16 13.46 13.46 0 0 0 4.53-3.23 16.54 16.54 0 0 0 3.06-4.85 15.61 15.61 0 0 0 0-11.82 16.16 16.16 0 0 0-3.12-4.78 14.14 14.14 0 0 0-4.59-3.23 13.33 13.33 0 0 0-5.45-1.16 12.62 12.62 0 0 0-5.51 1.23 15.8 15.8 0 0 0-4.53 3.23 15.31 15.31 0 0 0-3.12 4.71 14.59 14.59 0 0 0-1.16 5.82zM448.1 295.67h22.36v69.55H448.1v-9.32q-7.13 9.32-19.29 9.32a30 30 0 0 1-22.73-10 34 34 0 0 1-6.69-11.1 39.25 39.25 0 0 1-2.4-13.91 38.17 38.17 0 0 1 2.33-13.34 34.5 34.5 0 0 1 6.51-11 30.77 30.77 0 0 1 10-7.46 29.41 29.41 0 0 1 12.78-2.74 25.23 25.23 0 0 1 19.53 8.55zm-28 34.58a15.71 15.71 0 0 0 1.11 5.93 15.3 15.3 0 0 0 3 4.79 13.46 13.46 0 0 0 4.55 3.19 14.16 14.16 0 0 0 5.71 1.15 13.88 13.88 0 0 0 5.59-1.15 13.52 13.52 0 0 0 4.54-3.16 16.57 16.57 0 0 0 3.07-4.72 14.24 14.24 0 0 0 1.17-5.74 14.7 14.7 0 0 0-1.17-5.81 16.35 16.35 0 0 0-3.07-4.78 13.55 13.55 0 0 0-4.55-3.19 13.9 13.9 0 0 0-5.59-1.15 14.18 14.18 0 0 0-5.71 1.15 13.49 13.49 0 0 0-4.55 3.19 15.78 15.78 0 0 0-3 4.66 14.43 14.43 0 0 0-1.11 5.64zM510.63 267.53v97.69h-22.18v-97.69zM528.61 279.44a11.67 11.67 0 0 1 .91-4.61A12.11 12.11 0 0 1 532 271a11.83 11.83 0 0 1 3.72-2.57 11.39 11.39 0 0 1 9 0 11.89 11.89 0 0 1 3.72 2.57 12.18 12.18 0 0 1 2.52 3.8 12.09 12.09 0 0 1 0 9.23 12.16 12.16 0 0 1-2.52 3.8 11.84 11.84 0 0 1-3.72 2.57 11.39 11.39 0 0 1-9 0 11.78 11.78 0 0 1-3.72-2.57 12.09 12.09 0 0 1-2.52-3.8 11.67 11.67 0 0 1-.87-4.59z" transform="translate(-184.49 -267.53)"/><path class="cls-1" d="M344.22 28.14h23.22v69.55h-23.22z"/><path class="cls-2" d="M410.36 28.14h-24.94l45.17 69.55h24.52l-44.75-69.55z"/><path class="cls-3" d="M430.18 28.14h24.93l-45.17 69.55h-24.52l44.76-69.55z"/></svg>